<svg xmlns="http://www.w3.org/2000/svg" viewBox="0 0 780 136" aria-hidden="true">
<g fill="currentColor">
<rect x="79" y="13" width="5" height="1"/>
<rect x="171" y="13" width="39" height="1"/>
<rect x="302" y="13" width="15" height="1"/>
<rect x="409" y="13" width="4" height="1"/>
<rect x="479" y="13" width="6" height="1"/>
<rect x="577" y="13" width="12" height="1"/>
<rect x="680" y="13" width="5" height="1"/>
<rect x="76" y="14" width="10" height="1"/>
<rect x="166" y="14" width="47" height="1"/>
<rect x="296" y="14" width="26" height="1"/>
<rect x="407" y="14" width="8" height="1"/>
<rect x="477" y="14" width="9" height="1"/>
<rect x="572" y="14" width="21" height="1"/>
<rect x="678" y="14" width="10" height="1"/>
<rect x="75" y="15" width="12" height="1"/>
<rect x="164" y="15" width="50" height="1"/>
<rect x="294" y="15" width="29" height="1"/>
<rect x="405" y="15" width="11" height="1"/>
<rect x="476" y="15" width="11" height="1"/>
<rect x="570" y="15" width="25" height="1"/>
<rect x="677" y="15" width="12" height="1"/>
<rect x="74" y="16" width="14" height="1"/>
<rect x="161" y="16" width="54" height="1"/>
<rect x="291" y="16" width="35" height="1"/>
<rect x="404" y="16" width="14" height="1"/>
<rect x="475" y="16" width="14" height="1"/>
<rect x="567" y="16" width="31" height="1"/>
<rect x="676" y="16" width="14" height="1"/>
<rect x="73" y="17" width="16" height="1"/>
<rect x="158" y="17" width="58" height="1"/>
<rect x="288" y="17" width="41" height="1"/>
<rect x="403" y="17" width="15" height="1"/>
<rect x="474" y="17" width="16" height="1"/>
<rect x="564" y="17" width="36" height="1"/>
<rect x="675" y="17" width="16" height="1"/>
<rect x="72" y="18" width="18" height="1"/>
<rect x="156" y="18" width="61" height="1"/>
<rect x="287" y="18" width="43" height="1"/>
<rect x="403" y="18" width="16" height="1"/>
<rect x="474" y="18" width="16" height="1"/>
<rect x="563" y="18" width="38" height="1"/>
<rect x="674" y="18" width="18" height="1"/>
<rect x="72" y="19" width="18" height="1"/>
<rect x="155" y="19" width="62" height="1"/>
<rect x="285" y="19" width="47" height="1"/>
<rect x="403" y="19" width="16" height="1"/>
<rect x="473" y="19" width="18" height="1"/>
<rect x="562" y="19" width="41" height="1"/>
<rect x="674" y="19" width="18" height="1"/>
<rect x="72" y="20" width="19" height="1"/>
<rect x="153" y="20" width="65" height="1"/>
<rect x="283" y="20" width="51" height="1"/>
<rect x="402" y="20" width="18" height="1"/>
<rect x="473" y="20" width="18" height="1"/>
<rect x="560" y="20" width="45" height="1"/>
<rect x="674" y="20" width="18" height="1"/>
<rect x="72" y="21" width="19" height="1"/>
<rect x="152" y="21" width="66" height="1"/>
<rect x="282" y="21" width="53" height="1"/>
<rect x="402" y="21" width="18" height="1"/>
<rect x="472" y="21" width="20" height="1"/>
<rect x="559" y="21" width="47" height="1"/>
<rect x="673" y="21" width="20" height="1"/>
<rect x="71" y="22" width="20" height="1"/>
<rect x="151" y="22" width="67" height="1"/>
<rect x="281" y="22" width="55" height="1"/>
<rect x="402" y="22" width="19" height="1"/>
<rect x="472" y="22" width="20" height="1"/>
<rect x="558" y="22" width="49" height="1"/>
<rect x="673" y="22" width="20" height="1"/>
<rect x="71" y="23" width="20" height="1"/>
<rect x="150" y="23" width="68" height="1"/>
<rect x="280" y="23" width="58" height="1"/>
<rect x="402" y="23" width="19" height="1"/>
<rect x="472" y="23" width="20" height="1"/>
<rect x="556" y="23" width="52" height="1"/>
<rect x="673" y="23" width="20" height="1"/>
<rect x="71" y="24" width="20" height="1"/>
<rect x="149" y="24" width="69" height="1"/>
<rect x="278" y="24" width="61" height="1"/>
<rect x="401" y="24" width="20" height="1"/>
<rect x="472" y="24" width="20" height="1"/>
<rect x="556" y="24" width="53" height="1"/>
<rect x="673" y="24" width="20" height="1"/>
<rect x="71" y="25" width="20" height="1"/>
<rect x="148" y="25" width="70" height="1"/>
<rect x="278" y="25" width="62" height="1"/>
<rect x="401" y="25" width="20" height="1"/>
<rect x="472" y="25" width="20" height="1"/>
<rect x="555" y="25" width="55" height="1"/>
<rect x="673" y="25" width="20" height="1"/>
<rect x="71" y="26" width="20" height="1"/>
<rect x="147" y="26" width="71" height="1"/>
<rect x="277" y="26" width="64" height="1"/>
<rect x="401" y="26" width="20" height="1"/>
<rect x="472" y="26" width="20" height="1"/>
<rect x="554" y="26" width="57" height="1"/>
<rect x="673" y="26" width="20" height="1"/>
<rect x="71" y="27" width="20" height="1"/>
<rect x="146" y="27" width="71" height="1"/>
<rect x="276" y="27" width="66" height="1"/>
<rect x="401" y="27" width="20" height="1"/>
<rect x="472" y="27" width="20" height="1"/>
<rect x="553" y="27" width="59" height="1"/>
<rect x="673" y="27" width="20" height="1"/>
<rect x="71" y="28" width="20" height="1"/>
<rect x="145" y="28" width="71" height="1"/>
<rect x="275" y="28" width="68" height="1"/>
<rect x="401" y="28" width="20" height="1"/>
<rect x="472" y="28" width="20" height="1"/>
<rect x="552" y="28" width="60" height="1"/>
<rect x="673" y="28" width="20" height="1"/>
<rect x="71" y="29" width="20" height="1"/>
<rect x="145" y="29" width="70" height="1"/>
<rect x="274" y="29" width="70" height="1"/>
<rect x="401" y="29" width="20" height="1"/>
<rect x="472" y="29" width="20" height="1"/>
<rect x="552" y="29" width="61" height="1"/>
<rect x="673" y="29" width="20" height="1"/>
<rect x="71" y="30" width="20" height="1"/>
<rect x="144" y="30" width="70" height="1"/>
<rect x="274" y="30" width="70" height="1"/>
<rect x="401" y="30" width="20" height="1"/>
<rect x="472" y="30" width="20" height="1"/>
<rect x="551" y="30" width="63" height="1"/>
<rect x="673" y="30" width="20" height="1"/>
<rect x="71" y="31" width="20" height="1"/>
<rect x="143" y="31" width="71" height="1"/>
<rect x="273" y="31" width="72" height="1"/>
<rect x="401" y="31" width="20" height="1"/>
<rect x="472" y="31" width="20" height="1"/>
<rect x="550" y="31" width="65" height="1"/>
<rect x="673" y="31" width="20" height="1"/>
<rect x="71" y="32" width="20" height="1"/>
<rect x="142" y="32" width="69" height="1"/>
<rect x="272" y="32" width="74" height="1"/>
<rect x="401" y="32" width="20" height="1"/>
<rect x="472" y="32" width="20" height="1"/>
<rect x="549" y="32" width="66" height="1"/>
<rect x="673" y="32" width="20" height="1"/>
<rect x="71" y="33" width="20" height="1"/>
<rect x="142" y="33" width="67" height="1"/>
<rect x="271" y="33" width="35" height="1"/>
<rect x="311" y="33" width="36" height="1"/>
<rect x="401" y="33" width="20" height="1"/>
<rect x="472" y="33" width="20" height="1"/>
<rect x="549" y="33" width="66" height="1"/>
<rect x="673" y="33" width="20" height="1"/>
<rect x="71" y="34" width="20" height="1"/>
<rect x="141" y="34" width="29" height="1"/>
<rect x="271" y="34" width="31" height="1"/>
<rect x="315" y="34" width="32" height="1"/>
<rect x="401" y="34" width="20" height="1"/>
<rect x="472" y="34" width="20" height="1"/>
<rect x="549" y="34" width="29" height="1"/>
<rect x="587" y="34" width="29" height="1"/>
<rect x="673" y="34" width="20" height="1"/>
<rect x="71" y="35" width="20" height="1"/>
<rect x="141" y="35" width="25" height="1"/>
<rect x="270" y="35" width="27" height="1"/>
<rect x="320" y="35" width="27" height="1"/>
<rect x="401" y="35" width="20" height="1"/>
<rect x="472" y="35" width="20" height="1"/>
<rect x="548" y="35" width="26" height="1"/>
<rect x="592" y="35" width="24" height="1"/>
<rect x="673" y="35" width="20" height="1"/>
<rect x="71" y="36" width="20" height="1"/>
<rect x="141" y="36" width="24" height="1"/>
<rect x="270" y="36" width="25" height="1"/>
<rect x="323" y="36" width="25" height="1"/>
<rect x="401" y="36" width="20" height="1"/>
<rect x="472" y="36" width="20" height="1"/>
<rect x="548" y="36" width="24" height="1"/>
<rect x="594" y="36" width="23" height="1"/>
<rect x="673" y="36" width="20" height="1"/>
<rect x="72" y="37" width="19" height="1"/>
<rect x="140" y="37" width="24" height="1"/>
<rect x="269" y="37" width="25" height="1"/>
<rect x="324" y="37" width="25" height="1"/>
<rect x="401" y="37" width="20" height="1"/>
<rect x="472" y="37" width="20" height="1"/>
<rect x="547" y="37" width="24" height="1"/>
<rect x="595" y="37" width="23" height="1"/>
<rect x="673" y="37" width="20" height="1"/>
<rect x="72" y="38" width="19" height="1"/>
<rect x="140" y="38" width="23" height="1"/>
<rect x="268" y="38" width="24" height="1"/>
<rect x="325" y="38" width="25" height="1"/>
<rect x="401" y="38" width="20" height="1"/>
<rect x="472" y="38" width="20" height="1"/>
<rect x="547" y="38" width="23" height="1"/>
<rect x="596" y="38" width="22" height="1"/>
<rect x="673" y="38" width="20" height="1"/>
<rect x="72" y="39" width="19" height="1"/>
<rect x="140" y="39" width="21" height="1"/>
<rect x="268" y="39" width="23" height="1"/>
<rect x="327" y="39" width="23" height="1"/>
<rect x="401" y="39" width="20" height="1"/>
<rect x="472" y="39" width="20" height="1"/>
<rect x="546" y="39" width="23" height="1"/>
<rect x="597" y="39" width="22" height="1"/>
<rect x="673" y="39" width="20" height="1"/>
<rect x="72" y="40" width="19" height="1"/>
<rect x="139" y="40" width="22" height="1"/>
<rect x="268" y="40" width="22" height="1"/>
<rect x="328" y="40" width="22" height="1"/>
<rect x="401" y="40" width="20" height="1"/>
<rect x="473" y="40" width="19" height="1"/>
<rect x="546" y="40" width="22" height="1"/>
<rect x="597" y="40" width="22" height="1"/>
<rect x="673" y="40" width="20" height="1"/>
<rect x="72" y="41" width="19" height="1"/>
<rect x="139" y="41" width="21" height="1"/>
<rect x="267" y="41" width="23" height="1"/>
<rect x="328" y="41" width="23" height="1"/>
<rect x="401" y="41" width="20" height="1"/>
<rect x="473" y="41" width="19" height="1"/>
<rect x="546" y="41" width="22" height="1"/>
<rect x="598" y="41" width="21" height="1"/>
<rect x="673" y="41" width="20" height="1"/>
<rect x="72" y="42" width="19" height="1"/>
<rect x="139" y="42" width="20" height="1"/>
<rect x="267" y="42" width="22" height="1"/>
<rect x="329" y="42" width="22" height="1"/>
<rect x="401" y="42" width="20" height="1"/>
<rect x="473" y="42" width="19" height="1"/>
<rect x="545" y="42" width="22" height="1"/>
<rect x="599" y="42" width="21" height="1"/>
<rect x="673" y="42" width="20" height="1"/>
<rect x="72" y="43" width="19" height="1"/>
<rect x="138" y="43" width="21" height="1"/>
<rect x="267" y="43" width="21" height="1"/>
<rect x="330" y="43" width="21" height="1"/>
<rect x="401" y="43" width="20" height="1"/>
<rect x="473" y="43" width="19" height="1"/>
<rect x="545" y="43" width="21" height="1"/>
<rect x="600" y="43" width="20" height="1"/>
<rect x="673" y="43" width="20" height="1"/>
<rect x="72" y="44" width="19" height="1"/>
<rect x="138" y="44" width="20" height="1"/>
<rect x="266" y="44" width="21" height="1"/>
<rect x="331" y="44" width="20" height="1"/>
<rect x="401" y="44" width="20" height="1"/>
<rect x="473" y="44" width="19" height="1"/>
<rect x="545" y="44" width="21" height="1"/>
<rect x="600" y="44" width="20" height="1"/>
<rect x="673" y="44" width="20" height="1"/>
<rect x="72" y="45" width="19" height="1"/>
<rect x="138" y="45" width="20" height="1"/>
<rect x="266" y="45" width="20" height="1"/>
<rect x="331" y="45" width="20" height="1"/>
<rect x="401" y="45" width="20" height="1"/>
<rect x="473" y="45" width="19" height="1"/>
<rect x="545" y="45" width="20" height="1"/>
<rect x="600" y="45" width="20" height="1"/>
<rect x="673" y="45" width="20" height="1"/>
<rect x="72" y="46" width="19" height="1"/>
<rect x="138" y="46" width="19" height="1"/>
<rect x="265" y="46" width="21" height="1"/>
<rect x="332" y="46" width="20" height="1"/>
<rect x="401" y="46" width="20" height="1"/>
<rect x="473" y="46" width="19" height="1"/>
<rect x="545" y="46" width="20" height="1"/>
<rect x="601" y="46" width="19" height="1"/>
<rect x="673" y="46" width="20" height="1"/>
<rect x="72" y="47" width="19" height="1"/>
<rect x="138" y="47" width="19" height="1"/>
<rect x="265" y="47" width="21" height="1"/>
<rect x="332" y="47" width="20" height="1"/>
<rect x="401" y="47" width="20" height="1"/>
<rect x="473" y="47" width="19" height="1"/>
<rect x="545" y="47" width="20" height="1"/>
<rect x="601" y="47" width="20" height="1"/>
<rect x="673" y="47" width="20" height="1"/>
<rect x="72" y="48" width="19" height="1"/>
<rect x="138" y="48" width="19" height="1"/>
<rect x="265" y="48" width="21" height="1"/>
<rect x="332" y="48" width="21" height="1"/>
<rect x="401" y="48" width="20" height="1"/>
<rect x="473" y="48" width="19" height="1"/>
<rect x="544" y="48" width="20" height="1"/>
<rect x="601" y="48" width="20" height="1"/>
<rect x="673" y="48" width="20" height="1"/>
<rect x="72" y="49" width="19" height="1"/>
<rect x="138" y="49" width="19" height="1"/>
<rect x="265" y="49" width="20" height="1"/>
<rect x="333" y="49" width="20" height="1"/>
<rect x="401" y="49" width="20" height="1"/>
<rect x="473" y="49" width="19" height="1"/>
<rect x="544" y="49" width="20" height="1"/>
<rect x="602" y="49" width="19" height="1"/>
<rect x="673" y="49" width="20" height="1"/>
<rect x="72" y="50" width="19" height="1"/>
<rect x="138" y="50" width="19" height="1"/>
<rect x="264" y="50" width="21" height="1"/>
<rect x="333" y="50" width="20" height="1"/>
<rect x="401" y="50" width="20" height="1"/>
<rect x="473" y="50" width="19" height="1"/>
<rect x="544" y="50" width="20" height="1"/>
<rect x="602" y="50" width="19" height="1"/>
<rect x="673" y="50" width="20" height="1"/>
<rect x="72" y="51" width="19" height="1"/>
<rect x="138" y="51" width="19" height="1"/>
<rect x="264" y="51" width="20" height="1"/>
<rect x="333" y="51" width="21" height="1"/>
<rect x="401" y="51" width="20" height="1"/>
<rect x="473" y="51" width="19" height="1"/>
<rect x="544" y="51" width="20" height="1"/>
<rect x="602" y="51" width="19" height="1"/>
<rect x="673" y="51" width="20" height="1"/>
<rect x="72" y="52" width="19" height="1"/>
<rect x="138" y="52" width="19" height="1"/>
<rect x="264" y="52" width="20" height="1"/>
<rect x="334" y="52" width="20" height="1"/>
<rect x="401" y="52" width="20" height="1"/>
<rect x="473" y="52" width="19" height="1"/>
<rect x="544" y="52" width="19" height="1"/>
<rect x="602" y="52" width="19" height="1"/>
<rect x="673" y="52" width="20" height="1"/>
<rect x="72" y="53" width="19" height="1"/>
<rect x="138" y="53" width="19" height="1"/>
<rect x="264" y="53" width="19" height="1"/>
<rect x="334" y="53" width="20" height="1"/>
<rect x="401" y="53" width="20" height="1"/>
<rect x="473" y="53" width="19" height="1"/>
<rect x="543" y="53" width="20" height="1"/>
<rect x="603" y="53" width="18" height="1"/>
<rect x="673" y="53" width="20" height="1"/>
<rect x="71" y="54" width="20" height="1"/>
<rect x="138" y="54" width="19" height="1"/>
<rect x="264" y="54" width="19" height="1"/>
<rect x="334" y="54" width="20" height="1"/>
<rect x="401" y="54" width="20" height="1"/>
<rect x="473" y="54" width="19" height="1"/>
<rect x="543" y="54" width="20" height="1"/>
<rect x="603" y="54" width="19" height="1"/>
<rect x="673" y="54" width="20" height="1"/>
<rect x="71" y="55" width="20" height="1"/>
<rect x="138" y="55" width="19" height="1"/>
<rect x="264" y="55" width="19" height="1"/>
<rect x="334" y="55" width="20" height="1"/>
<rect x="401" y="55" width="20" height="1"/>
<rect x="473" y="55" width="19" height="1"/>
<rect x="543" y="55" width="20" height="1"/>
<rect x="603" y="55" width="19" height="1"/>
<rect x="673" y="55" width="20" height="1"/>
<rect x="71" y="56" width="20" height="1"/>
<rect x="138" y="56" width="19" height="1"/>
<rect x="264" y="56" width="19" height="1"/>
<rect x="334" y="56" width="20" height="1"/>
<rect x="401" y="56" width="20" height="1"/>
<rect x="473" y="56" width="19" height="1"/>
<rect x="543" y="56" width="20" height="1"/>
<rect x="603" y="56" width="19" height="1"/>
<rect x="673" y="56" width="20" height="1"/>
<rect x="71" y="57" width="20" height="1"/>
<rect x="138" y="57" width="19" height="1"/>
<rect x="264" y="57" width="19" height="1"/>
<rect x="335" y="57" width="19" height="1"/>
<rect x="401" y="57" width="20" height="1"/>
<rect x="473" y="57" width="19" height="1"/>
<rect x="543" y="57" width="20" height="1"/>
<rect x="603" y="57" width="19" height="1"/>
<rect x="673" y="57" width="20" height="1"/>
<rect x="71" y="58" width="20" height="1"/>
<rect x="138" y="58" width="19" height="1"/>
<rect x="264" y="58" width="19" height="1"/>
<rect x="335" y="58" width="19" height="1"/>
<rect x="401" y="58" width="20" height="1"/>
<rect x="472" y="58" width="20" height="1"/>
<rect x="542" y="58" width="20" height="1"/>
<rect x="603" y="58" width="19" height="1"/>
<rect x="673" y="58" width="20" height="1"/>
<rect x="71" y="59" width="20" height="1"/>
<rect x="138" y="59" width="19" height="1"/>
<rect x="264" y="59" width="19" height="1"/>
<rect x="335" y="59" width="19" height="1"/>
<rect x="401" y="59" width="20" height="1"/>
<rect x="472" y="59" width="20" height="1"/>
<rect x="542" y="59" width="20" height="1"/>
<rect x="603" y="59" width="20" height="1"/>
<rect x="673" y="59" width="20" height="1"/>
<rect x="71" y="60" width="20" height="1"/>
<rect x="138" y="60" width="19" height="1"/>
<rect x="264" y="60" width="19" height="1"/>
<rect x="335" y="60" width="19" height="1"/>
<rect x="401" y="60" width="20" height="1"/>
<rect x="472" y="60" width="20" height="1"/>
<rect x="542" y="60" width="20" height="1"/>
<rect x="603" y="60" width="20" height="1"/>
<rect x="673" y="60" width="20" height="1"/>
<rect x="71" y="61" width="20" height="1"/>
<rect x="138" y="61" width="21" height="1"/>
<rect x="160" y="61" width="44" height="1"/>
<rect x="264" y="61" width="19" height="1"/>
<rect x="335" y="61" width="19" height="1"/>
<rect x="401" y="61" width="20" height="1"/>
<rect x="472" y="61" width="20" height="1"/>
<rect x="542" y="61" width="20" height="1"/>
<rect x="603" y="61" width="20" height="1"/>
<rect x="673" y="61" width="20" height="1"/>
<rect x="71" y="62" width="20" height="1"/>
<rect x="138" y="62" width="69" height="1"/>
<rect x="264" y="62" width="19" height="1"/>
<rect x="335" y="62" width="19" height="1"/>
<rect x="401" y="62" width="20" height="1"/>
<rect x="472" y="62" width="20" height="1"/>
<rect x="542" y="62" width="20" height="1"/>
<rect x="604" y="62" width="19" height="1"/>
<rect x="673" y="62" width="20" height="1"/>
<rect x="71" y="63" width="20" height="1"/>
<rect x="138" y="63" width="70" height="1"/>
<rect x="264" y="63" width="19" height="1"/>
<rect x="334" y="63" width="20" height="1"/>
<rect x="401" y="63" width="20" height="1"/>
<rect x="472" y="63" width="20" height="1"/>
<rect x="542" y="63" width="20" height="1"/>
<rect x="604" y="63" width="19" height="1"/>
<rect x="673" y="63" width="20" height="1"/>
<rect x="71" y="64" width="20" height="1"/>
<rect x="138" y="64" width="72" height="1"/>
<rect x="264" y="64" width="19" height="1"/>
<rect x="334" y="64" width="20" height="1"/>
<rect x="401" y="64" width="20" height="1"/>
<rect x="472" y="64" width="20" height="1"/>
<rect x="542" y="64" width="19" height="1"/>
<rect x="604" y="64" width="19" height="1"/>
<rect x="673" y="64" width="20" height="1"/>
<rect x="71" y="65" width="20" height="1"/>
<rect x="138" y="65" width="73" height="1"/>
<rect x="264" y="65" width="19" height="1"/>
<rect x="335" y="65" width="19" height="1"/>
<rect x="401" y="65" width="20" height="1"/>
<rect x="472" y="65" width="20" height="1"/>
<rect x="542" y="65" width="19" height="1"/>
<rect x="604" y="65" width="19" height="1"/>
<rect x="673" y="65" width="20" height="1"/>
<rect x="71" y="66" width="20" height="1"/>
<rect x="138" y="66" width="73" height="1"/>
<rect x="264" y="66" width="19" height="1"/>
<rect x="335" y="66" width="19" height="1"/>
<rect x="401" y="66" width="20" height="1"/>
<rect x="472" y="66" width="20" height="1"/>
<rect x="542" y="66" width="19" height="1"/>
<rect x="604" y="66" width="20" height="1"/>
<rect x="673" y="66" width="20" height="1"/>
<rect x="71" y="67" width="20" height="1"/>
<rect x="138" y="67" width="74" height="1"/>
<rect x="264" y="67" width="19" height="1"/>
<rect x="335" y="67" width="19" height="1"/>
<rect x="401" y="67" width="20" height="1"/>
<rect x="472" y="67" width="20" height="1"/>
<rect x="541" y="67" width="20" height="1"/>
<rect x="604" y="67" width="20" height="1"/>
<rect x="673" y="67" width="20" height="1"/>
<rect x="71" y="68" width="20" height="1"/>
<rect x="138" y="68" width="74" height="1"/>
<rect x="264" y="68" width="19" height="1"/>
<rect x="335" y="68" width="19" height="1"/>
<rect x="401" y="68" width="20" height="1"/>
<rect x="472" y="68" width="20" height="1"/>
<rect x="541" y="68" width="20" height="1"/>
<rect x="604" y="68" width="20" height="1"/>
<rect x="673" y="68" width="20" height="1"/>
<rect x="71" y="69" width="20" height="1"/>
<rect x="138" y="69" width="75" height="1"/>
<rect x="264" y="69" width="19" height="1"/>
<rect x="335" y="69" width="19" height="1"/>
<rect x="401" y="69" width="20" height="1"/>
<rect x="472" y="69" width="20" height="1"/>
<rect x="541" y="69" width="19" height="1"/>
<rect x="604" y="69" width="20" height="1"/>
<rect x="673" y="69" width="20" height="1"/>
<rect x="71" y="70" width="20" height="1"/>
<rect x="138" y="70" width="75" height="1"/>
<rect x="264" y="70" width="19" height="1"/>
<rect x="335" y="70" width="19" height="1"/>
<rect x="401" y="70" width="20" height="1"/>
<rect x="472" y="70" width="20" height="1"/>
<rect x="541" y="70" width="19" height="1"/>
<rect x="604" y="70" width="20" height="1"/>
<rect x="673" y="70" width="20" height="1"/>
<rect x="71" y="71" width="20" height="1"/>
<rect x="138" y="71" width="75" height="1"/>
<rect x="264" y="71" width="19" height="1"/>
<rect x="335" y="71" width="19" height="1"/>
<rect x="401" y="71" width="20" height="1"/>
<rect x="472" y="71" width="20" height="1"/>
<rect x="540" y="71" width="20" height="1"/>
<rect x="605" y="71" width="20" height="1"/>
<rect x="673" y="71" width="20" height="1"/>
<rect x="71" y="72" width="20" height="1"/>
<rect x="138" y="72" width="75" height="1"/>
<rect x="264" y="72" width="19" height="1"/>
<rect x="334" y="72" width="20" height="1"/>
<rect x="401" y="72" width="20" height="1"/>
<rect x="472" y="72" width="20" height="1"/>
<rect x="540" y="72" width="20" height="1"/>
<rect x="605" y="72" width="20" height="1"/>
<rect x="673" y="72" width="20" height="1"/>
<rect x="71" y="73" width="20" height="1"/>
<rect x="138" y="73" width="75" height="1"/>
<rect x="264" y="73" width="19" height="1"/>
<rect x="334" y="73" width="20" height="1"/>
<rect x="401" y="73" width="20" height="1"/>
<rect x="472" y="73" width="20" height="1"/>
<rect x="540" y="73" width="19" height="1"/>
<rect x="605" y="73" width="20" height="1"/>
<rect x="673" y="73" width="20" height="1"/>
<rect x="71" y="74" width="20" height="1"/>
<rect x="138" y="74" width="74" height="1"/>
<rect x="264" y="74" width="19" height="1"/>
<rect x="334" y="74" width="20" height="1"/>
<rect x="401" y="74" width="20" height="1"/>
<rect x="472" y="74" width="20" height="1"/>
<rect x="540" y="74" width="19" height="1"/>
<rect x="605" y="74" width="20" height="1"/>
<rect x="673" y="74" width="20" height="1"/>
<rect x="71" y="75" width="20" height="1"/>
<rect x="138" y="75" width="74" height="1"/>
<rect x="264" y="75" width="19" height="1"/>
<rect x="334" y="75" width="20" height="1"/>
<rect x="401" y="75" width="20" height="1"/>
<rect x="472" y="75" width="21" height="1"/>
<rect x="540" y="75" width="19" height="1"/>
<rect x="606" y="75" width="19" height="1"/>
<rect x="673" y="75" width="20" height="1"/>
<rect x="71" y="76" width="20" height="1"/>
<rect x="138" y="76" width="73" height="1"/>
<rect x="264" y="76" width="19" height="1"/>
<rect x="334" y="76" width="20" height="1"/>
<rect x="401" y="76" width="20" height="1"/>
<rect x="472" y="76" width="21" height="1"/>
<rect x="539" y="76" width="20" height="1"/>
<rect x="606" y="76" width="19" height="1"/>
<rect x="673" y="76" width="20" height="1"/>
<rect x="71" y="77" width="20" height="1"/>
<rect x="138" y="77" width="73" height="1"/>
<rect x="264" y="77" width="19" height="1"/>
<rect x="334" y="77" width="20" height="1"/>
<rect x="401" y="77" width="20" height="1"/>
<rect x="472" y="77" width="21" height="1"/>
<rect x="539" y="77" width="20" height="1"/>
<rect x="606" y="77" width="20" height="1"/>
<rect x="673" y="77" width="20" height="1"/>
<rect x="71" y="78" width="20" height="1"/>
<rect x="138" y="78" width="72" height="1"/>
<rect x="264" y="78" width="19" height="1"/>
<rect x="334" y="78" width="20" height="1"/>
<rect x="401" y="78" width="20" height="1"/>
<rect x="472" y="78" width="21" height="1"/>
<rect x="539" y="78" width="20" height="1"/>
<rect x="606" y="78" width="20" height="1"/>
<rect x="673" y="78" width="20" height="1"/>
<rect x="71" y="79" width="20" height="1"/>
<rect x="138" y="79" width="70" height="1"/>
<rect x="264" y="79" width="19" height="1"/>
<rect x="334" y="79" width="20" height="1"/>
<rect x="401" y="79" width="20" height="1"/>
<rect x="472" y="79" width="20" height="1"/>
<rect x="539" y="79" width="19" height="1"/>
<rect x="606" y="79" width="20" height="1"/>
<rect x="673" y="79" width="20" height="1"/>
<rect x="71" y="80" width="20" height="1"/>
<rect x="138" y="80" width="69" height="1"/>
<rect x="264" y="80" width="19" height="1"/>
<rect x="334" y="80" width="20" height="1"/>
<rect x="401" y="80" width="20" height="1"/>
<rect x="472" y="80" width="20" height="1"/>
<rect x="539" y="80" width="19" height="1"/>
<rect x="606" y="80" width="20" height="1"/>
<rect x="673" y="80" width="20" height="1"/>
<rect x="71" y="81" width="20" height="1"/>
<rect x="138" y="81" width="66" height="1"/>
<rect x="264" y="81" width="19" height="1"/>
<rect x="334" y="81" width="20" height="1"/>
<rect x="401" y="81" width="20" height="1"/>
<rect x="472" y="81" width="20" height="1"/>
<rect x="539" y="81" width="19" height="1"/>
<rect x="567" y="81" width="31" height="1"/>
<rect x="606" y="81" width="21" height="1"/>
<rect x="673" y="81" width="20" height="1"/>
<rect x="71" y="82" width="20" height="1"/>
<rect x="138" y="82" width="20" height="1"/>
<rect x="264" y="82" width="19" height="1"/>
<rect x="334" y="82" width="20" height="1"/>
<rect x="401" y="82" width="20" height="1"/>
<rect x="472" y="82" width="20" height="1"/>
<rect x="539" y="82" width="19" height="1"/>
<rect x="565" y="82" width="35" height="1"/>
<rect x="607" y="82" width="20" height="1"/>
<rect x="673" y="82" width="20" height="1"/>
<rect x="71" y="83" width="20" height="1"/>
<rect x="138" y="83" width="19" height="1"/>
<rect x="264" y="83" width="19" height="1"/>
<rect x="334" y="83" width="20" height="1"/>
<rect x="401" y="83" width="20" height="1"/>
<rect x="472" y="83" width="20" height="1"/>
<rect x="539" y="83" width="19" height="1"/>
<rect x="565" y="83" width="36" height="1"/>
<rect x="607" y="83" width="20" height="1"/>
<rect x="673" y="83" width="20" height="1"/>
<rect x="71" y="84" width="20" height="1"/>
<rect x="138" y="84" width="19" height="1"/>
<rect x="264" y="84" width="19" height="1"/>
<rect x="334" y="84" width="20" height="1"/>
<rect x="401" y="84" width="20" height="1"/>
<rect x="472" y="84" width="20" height="1"/>
<rect x="538" y="84" width="20" height="1"/>
<rect x="564" y="84" width="38" height="1"/>
<rect x="607" y="84" width="20" height="1"/>
<rect x="673" y="84" width="20" height="1"/>
<rect x="9" y="85" width="9" height="1"/>
<rect x="71" y="85" width="20" height="1"/>
<rect x="138" y="85" width="19" height="1"/>
<rect x="264" y="85" width="19" height="1"/>
<rect x="334" y="85" width="20" height="1"/>
<rect x="402" y="85" width="19" height="1"/>
<rect x="472" y="85" width="20" height="1"/>
<rect x="538" y="85" width="19" height="1"/>
<rect x="563" y="85" width="39" height="1"/>
<rect x="607" y="85" width="20" height="1"/>
<rect x="673" y="85" width="20" height="1"/>
<rect x="8" y="86" width="11" height="1"/>
<rect x="71" y="86" width="20" height="1"/>
<rect x="138" y="86" width="19" height="1"/>
<rect x="264" y="86" width="19" height="1"/>
<rect x="334" y="86" width="20" height="1"/>
<rect x="402" y="86" width="19" height="1"/>
<rect x="472" y="86" width="20" height="1"/>
<rect x="538" y="86" width="19" height="1"/>
<rect x="563" y="86" width="40" height="1"/>
<rect x="607" y="86" width="20" height="1"/>
<rect x="673" y="86" width="20" height="1"/>
<rect x="7" y="87" width="13" height="1"/>
<rect x="71" y="87" width="20" height="1"/>
<rect x="138" y="87" width="19" height="1"/>
<rect x="264" y="87" width="19" height="1"/>
<rect x="334" y="87" width="20" height="1"/>
<rect x="402" y="87" width="19" height="1"/>
<rect x="472" y="87" width="20" height="1"/>
<rect x="538" y="87" width="19" height="1"/>
<rect x="562" y="87" width="41" height="1"/>
<rect x="607" y="87" width="21" height="1"/>
<rect x="673" y="87" width="20" height="1"/>
<rect x="6" y="88" width="15" height="1"/>
<rect x="71" y="88" width="20" height="1"/>
<rect x="138" y="88" width="19" height="1"/>
<rect x="264" y="88" width="19" height="1"/>
<rect x="334" y="88" width="20" height="1"/>
<rect x="402" y="88" width="19" height="1"/>
<rect x="472" y="88" width="20" height="1"/>
<rect x="537" y="88" width="20" height="1"/>
<rect x="562" y="88" width="41" height="1"/>
<rect x="607" y="88" width="21" height="1"/>
<rect x="673" y="88" width="20" height="1"/>
<rect x="6" y="89" width="16" height="1"/>
<rect x="71" y="89" width="20" height="1"/>
<rect x="138" y="89" width="19" height="1"/>
<rect x="264" y="89" width="19" height="1"/>
<rect x="334" y="89" width="20" height="1"/>
<rect x="402" y="89" width="19" height="1"/>
<rect x="472" y="89" width="20" height="1"/>
<rect x="537" y="89" width="20" height="1"/>
<rect x="562" y="89" width="42" height="1"/>
<rect x="607" y="89" width="21" height="1"/>
<rect x="673" y="89" width="20" height="1"/>
<rect x="5" y="90" width="17" height="1"/>
<rect x="71" y="90" width="20" height="1"/>
<rect x="138" y="90" width="19" height="1"/>
<rect x="264" y="90" width="19" height="1"/>
<rect x="334" y="90" width="20" height="1"/>
<rect x="402" y="90" width="20" height="1"/>
<rect x="471" y="90" width="20" height="1"/>
<rect x="537" y="90" width="19" height="1"/>
<rect x="562" y="90" width="42" height="1"/>
<rect x="608" y="90" width="20" height="1"/>
<rect x="673" y="90" width="20" height="1"/>
<rect x="4" y="91" width="19" height="1"/>
<rect x="71" y="91" width="20" height="1"/>
<rect x="138" y="91" width="19" height="1"/>
<rect x="264" y="91" width="19" height="1"/>
<rect x="334" y="91" width="20" height="1"/>
<rect x="402" y="91" width="20" height="1"/>
<rect x="471" y="91" width="20" height="1"/>
<rect x="536" y="91" width="20" height="1"/>
<rect x="562" y="91" width="42" height="1"/>
<rect x="608" y="91" width="20" height="1"/>
<rect x="673" y="91" width="20" height="1"/>
<rect x="4" y="92" width="20" height="1"/>
<rect x="71" y="92" width="20" height="1"/>
<rect x="138" y="92" width="19" height="1"/>
<rect x="264" y="92" width="19" height="1"/>
<rect x="334" y="92" width="20" height="1"/>
<rect x="403" y="92" width="19" height="1"/>
<rect x="471" y="92" width="20" height="1"/>
<rect x="536" y="92" width="20" height="1"/>
<rect x="562" y="92" width="41" height="1"/>
<rect x="608" y="92" width="20" height="1"/>
<rect x="673" y="92" width="20" height="1"/>
<rect x="4" y="93" width="20" height="1"/>
<rect x="70" y="93" width="21" height="1"/>
<rect x="138" y="93" width="19" height="1"/>
<rect x="264" y="93" width="19" height="1"/>
<rect x="334" y="93" width="20" height="1"/>
<rect x="403" y="93" width="19" height="1"/>
<rect x="471" y="93" width="19" height="1"/>
<rect x="536" y="93" width="20" height="1"/>
<rect x="562" y="93" width="41" height="1"/>
<rect x="608" y="93" width="20" height="1"/>
<rect x="673" y="93" width="20" height="1"/>
<rect x="4" y="94" width="20" height="1"/>
<rect x="70" y="94" width="20" height="1"/>
<rect x="138" y="94" width="19" height="1"/>
<rect x="264" y="94" width="19" height="1"/>
<rect x="334" y="94" width="20" height="1"/>
<rect x="403" y="94" width="19" height="1"/>
<rect x="470" y="94" width="20" height="1"/>
<rect x="536" y="94" width="20" height="1"/>
<rect x="563" y="94" width="40" height="1"/>
<rect x="608" y="94" width="20" height="1"/>
<rect x="673" y="94" width="20" height="1"/>
<rect x="4" y="95" width="21" height="1"/>
<rect x="70" y="95" width="20" height="1"/>
<rect x="138" y="95" width="19" height="1"/>
<rect x="264" y="95" width="19" height="1"/>
<rect x="334" y="95" width="20" height="1"/>
<rect x="403" y="95" width="19" height="1"/>
<rect x="470" y="95" width="20" height="1"/>
<rect x="536" y="95" width="20" height="1"/>
<rect x="563" y="95" width="39" height="1"/>
<rect x="609" y="95" width="20" height="1"/>
<rect x="673" y="95" width="21" height="1"/>
<rect x="4" y="96" width="21" height="1"/>
<rect x="69" y="96" width="21" height="1"/>
<rect x="138" y="96" width="20" height="1"/>
<rect x="264" y="96" width="19" height="1"/>
<rect x="334" y="96" width="20" height="1"/>
<rect x="403" y="96" width="20" height="1"/>
<rect x="470" y="96" width="20" height="1"/>
<rect x="536" y="96" width="19" height="1"/>
<rect x="564" y="96" width="38" height="1"/>
<rect x="609" y="96" width="20" height="1"/>
<rect x="674" y="96" width="20" height="1"/>
<rect x="4" y="97" width="21" height="1"/>
<rect x="69" y="97" width="20" height="1"/>
<rect x="138" y="97" width="20" height="1"/>
<rect x="264" y="97" width="19" height="1"/>
<rect x="334" y="97" width="20" height="1"/>
<rect x="403" y="97" width="20" height="1"/>
<rect x="469" y="97" width="21" height="1"/>
<rect x="535" y="97" width="20" height="1"/>
<rect x="564" y="97" width="37" height="1"/>
<rect x="609" y="97" width="20" height="1"/>
<rect x="674" y="97" width="21" height="1"/>
<rect x="5" y="98" width="21" height="1"/>
<rect x="69" y="98" width="20" height="1"/>
<rect x="138" y="98" width="20" height="1"/>
<rect x="264" y="98" width="19" height="1"/>
<rect x="334" y="98" width="20" height="1"/>
<rect x="404" y="98" width="20" height="1"/>
<rect x="469" y="98" width="21" height="1"/>
<rect x="535" y="98" width="20" height="1"/>
<rect x="565" y="98" width="35" height="1"/>
<rect x="609" y="98" width="20" height="1"/>
<rect x="674" y="98" width="21" height="1"/>
<rect x="5" y="99" width="21" height="1"/>
<rect x="68" y="99" width="21" height="1"/>
<rect x="138" y="99" width="20" height="1"/>
<rect x="264" y="99" width="19" height="1"/>
<rect x="334" y="99" width="20" height="1"/>
<rect x="404" y="99" width="21" height="1"/>
<rect x="468" y="99" width="22" height="1"/>
<rect x="535" y="99" width="20" height="1"/>
<rect x="567" y="99" width="31" height="1"/>
<rect x="610" y="99" width="20" height="1"/>
<rect x="674" y="99" width="21" height="1"/>
<rect x="6" y="100" width="21" height="1"/>
<rect x="68" y="100" width="21" height="1"/>
<rect x="138" y="100" width="21" height="1"/>
<rect x="264" y="100" width="19" height="1"/>
<rect x="334" y="100" width="20" height="1"/>
<rect x="404" y="100" width="21" height="1"/>
<rect x="468" y="100" width="21" height="1"/>
<rect x="535" y="100" width="20" height="1"/>
<rect x="569" y="100" width="27" height="1"/>
<rect x="610" y="100" width="20" height="1"/>
<rect x="675" y="100" width="20" height="1"/>
<rect x="6" y="101" width="22" height="1"/>
<rect x="67" y="101" width="21" height="1"/>
<rect x="139" y="101" width="21" height="1"/>
<rect x="264" y="101" width="19" height="1"/>
<rect x="334" y="101" width="20" height="1"/>
<rect x="405" y="101" width="21" height="1"/>
<rect x="467" y="101" width="22" height="1"/>
<rect x="534" y="101" width="20" height="1"/>
<rect x="610" y="101" width="20" height="1"/>
<rect x="675" y="101" width="21" height="1"/>
<rect x="6" y="102" width="23" height="1"/>
<rect x="66" y="102" width="22" height="1"/>
<rect x="139" y="102" width="21" height="1"/>
<rect x="264" y="102" width="19" height="1"/>
<rect x="334" y="102" width="20" height="1"/>
<rect x="405" y="102" width="23" height="1"/>
<rect x="466" y="102" width="22" height="1"/>
<rect x="534" y="102" width="20" height="1"/>
<rect x="610" y="102" width="20" height="1"/>
<rect x="675" y="102" width="22" height="1"/>
<rect x="7" y="103" width="23" height="1"/>
<rect x="65" y="103" width="23" height="1"/>
<rect x="139" y="103" width="22" height="1"/>
<rect x="264" y="103" width="19" height="1"/>
<rect x="334" y="103" width="20" height="1"/>
<rect x="406" y="103" width="22" height="1"/>
<rect x="465" y="103" width="22" height="1"/>
<rect x="534" y="103" width="20" height="1"/>
<rect x="610" y="103" width="20" height="1"/>
<rect x="675" y="103" width="22" height="1"/>
<rect x="7" y="104" width="24" height="1"/>
<rect x="64" y="104" width="23" height="1"/>
<rect x="140" y="104" width="21" height="1"/>
<rect x="264" y="104" width="19" height="1"/>
<rect x="334" y="104" width="20" height="1"/>
<rect x="406" y="104" width="23" height="1"/>
<rect x="464" y="104" width="23" height="1"/>
<rect x="533" y="104" width="21" height="1"/>
<rect x="610" y="104" width="20" height="1"/>
<rect x="676" y="104" width="22" height="1"/>
<rect x="8" y="105" width="24" height="1"/>
<rect x="62" y="105" width="25" height="1"/>
<rect x="140" y="105" width="22" height="1"/>
<rect x="264" y="105" width="19" height="1"/>
<rect x="334" y="105" width="20" height="1"/>
<rect x="407" y="105" width="24" height="1"/>
<rect x="462" y="105" width="25" height="1"/>
<rect x="533" y="105" width="21" height="1"/>
<rect x="610" y="105" width="20" height="1"/>
<rect x="676" y="105" width="24" height="1"/>
<rect x="8" y="106" width="25" height="1"/>
<rect x="61" y="106" width="25" height="1"/>
<rect x="141" y="106" width="22" height="1"/>
<rect x="264" y="106" width="19" height="1"/>
<rect x="334" y="106" width="20" height="1"/>
<rect x="407" y="106" width="26" height="1"/>
<rect x="461" y="106" width="25" height="1"/>
<rect x="533" y="106" width="21" height="1"/>
<rect x="610" y="106" width="21" height="1"/>
<rect x="677" y="106" width="25" height="1"/>
<rect x="9" y="107" width="26" height="1"/>
<rect x="60" y="107" width="26" height="1"/>
<rect x="141" y="107" width="23" height="1"/>
<rect x="264" y="107" width="19" height="1"/>
<rect x="334" y="107" width="20" height="1"/>
<rect x="407" y="107" width="27" height="1"/>
<rect x="460" y="107" width="26" height="1"/>
<rect x="533" y="107" width="21" height="1"/>
<rect x="611" y="107" width="20" height="1"/>
<rect x="677" y="107" width="26" height="1"/>
<rect x="10" y="108" width="29" height="1"/>
<rect x="57" y="108" width="28" height="1"/>
<rect x="142" y="108" width="24" height="1"/>
<rect x="264" y="108" width="19" height="1"/>
<rect x="334" y="108" width="20" height="1"/>
<rect x="408" y="108" width="30" height="1"/>
<rect x="457" y="108" width="29" height="1"/>
<rect x="533" y="108" width="21" height="1"/>
<rect x="611" y="108" width="20" height="1"/>
<rect x="678" y="108" width="28" height="1"/>
<rect x="10" y="109" width="34" height="1"/>
<rect x="52" y="109" width="32" height="1"/>
<rect x="142" y="109" width="27" height="1"/>
<rect x="264" y="109" width="19" height="1"/>
<rect x="334" y="109" width="20" height="1"/>
<rect x="409" y="109" width="38" height="1"/>
<rect x="450" y="109" width="35" height="1"/>
<rect x="532" y="109" width="21" height="1"/>
<rect x="611" y="109" width="20" height="1"/>
<rect x="678" y="109" width="71" height="1"/>
<rect x="11" y="110" width="73" height="1"/>
<rect x="143" y="110" width="28" height="1"/>
<rect x="264" y="110" width="19" height="1"/>
<rect x="334" y="110" width="20" height="1"/>
<rect x="410" y="110" width="74" height="1"/>
<rect x="532" y="110" width="21" height="1"/>
<rect x="611" y="110" width="20" height="1"/>
<rect x="679" y="110" width="73" height="1"/>
<rect x="11" y="111" width="72" height="1"/>
<rect x="143" y="111" width="47" height="1"/>
<rect x="194" y="111" width="3" height="1"/>
<rect x="200" y="111" width="9" height="1"/>
<rect x="264" y="111" width="19" height="1"/>
<rect x="334" y="111" width="20" height="1"/>
<rect x="410" y="111" width="73" height="1"/>
<rect x="532" y="111" width="21" height="1"/>
<rect x="611" y="111" width="20" height="1"/>
<rect x="679" y="111" width="75" height="1"/>
<rect x="12" y="112" width="70" height="1"/>
<rect x="144" y="112" width="69" height="1"/>
<rect x="264" y="112" width="19" height="1"/>
<rect x="334" y="112" width="20" height="1"/>
<rect x="411" y="112" width="72" height="1"/>
<rect x="532" y="112" width="21" height="1"/>
<rect x="611" y="112" width="20" height="1"/>
<rect x="680" y="112" width="76" height="1"/>
<rect x="13" y="113" width="68" height="1"/>
<rect x="144" y="113" width="70" height="1"/>
<rect x="264" y="113" width="19" height="1"/>
<rect x="334" y="113" width="20" height="1"/>
<rect x="411" y="113" width="71" height="1"/>
<rect x="532" y="113" width="21" height="1"/>
<rect x="611" y="113" width="20" height="1"/>
<rect x="681" y="113" width="75" height="1"/>
<rect x="14" y="114" width="66" height="1"/>
<rect x="145" y="114" width="70" height="1"/>
<rect x="264" y="114" width="19" height="1"/>
<rect x="334" y="114" width="20" height="1"/>
<rect x="412" y="114" width="69" height="1"/>
<rect x="532" y="114" width="20" height="1"/>
<rect x="612" y="114" width="20" height="1"/>
<rect x="681" y="114" width="76" height="1"/>
<rect x="14" y="115" width="66" height="1"/>
<rect x="146" y="115" width="70" height="1"/>
<rect x="264" y="115" width="19" height="1"/>
<rect x="334" y="115" width="20" height="1"/>
<rect x="413" y="115" width="67" height="1"/>
<rect x="532" y="115" width="20" height="1"/>
<rect x="612" y="115" width="20" height="1"/>
<rect x="682" y="115" width="76" height="1"/>
<rect x="15" y="116" width="64" height="1"/>
<rect x="147" y="116" width="70" height="1"/>
<rect x="264" y="116" width="19" height="1"/>
<rect x="334" y="116" width="20" height="1"/>
<rect x="414" y="116" width="65" height="1"/>
<rect x="531" y="116" width="21" height="1"/>
<rect x="612" y="116" width="20" height="1"/>
<rect x="683" y="116" width="75" height="1"/>
<rect x="16" y="117" width="62" height="1"/>
<rect x="148" y="117" width="69" height="1"/>
<rect x="264" y="117" width="19" height="1"/>
<rect x="334" y="117" width="20" height="1"/>
<rect x="415" y="117" width="63" height="1"/>
<rect x="531" y="117" width="21" height="1"/>
<rect x="612" y="117" width="20" height="1"/>
<rect x="684" y="117" width="75" height="1"/>
<rect x="17" y="118" width="60" height="1"/>
<rect x="149" y="118" width="69" height="1"/>
<rect x="264" y="118" width="19" height="1"/>
<rect x="334" y="118" width="20" height="1"/>
<rect x="416" y="118" width="61" height="1"/>
<rect x="531" y="118" width="21" height="1"/>
<rect x="612" y="118" width="20" height="1"/>
<rect x="685" y="118" width="74" height="1"/>
<rect x="18" y="119" width="58" height="1"/>
<rect x="149" y="119" width="69" height="1"/>
<rect x="264" y="119" width="19" height="1"/>
<rect x="334" y="119" width="20" height="1"/>
<rect x="417" y="119" width="59" height="1"/>
<rect x="531" y="119" width="21" height="1"/>
<rect x="612" y="119" width="20" height="1"/>
<rect x="686" y="119" width="73" height="1"/>
<rect x="20" y="120" width="54" height="1"/>
<rect x="150" y="120" width="68" height="1"/>
<rect x="264" y="120" width="19" height="1"/>
<rect x="334" y="120" width="20" height="1"/>
<rect x="418" y="120" width="56" height="1"/>
<rect x="531" y="120" width="20" height="1"/>
<rect x="612" y="120" width="20" height="1"/>
<rect x="687" y="120" width="72" height="1"/>
<rect x="21" y="121" width="52" height="1"/>
<rect x="151" y="121" width="67" height="1"/>
<rect x="264" y="121" width="19" height="1"/>
<rect x="334" y="121" width="20" height="1"/>
<rect x="419" y="121" width="54" height="1"/>
<rect x="531" y="121" width="20" height="1"/>
<rect x="613" y="121" width="19" height="1"/>
<rect x="688" y="121" width="71" height="1"/>
<rect x="22" y="122" width="50" height="1"/>
<rect x="152" y="122" width="66" height="1"/>
<rect x="264" y="122" width="19" height="1"/>
<rect x="335" y="122" width="19" height="1"/>
<rect x="420" y="122" width="52" height="1"/>
<rect x="531" y="122" width="20" height="1"/>
<rect x="613" y="122" width="19" height="1"/>
<rect x="689" y="122" width="70" height="1"/>
<rect x="24" y="123" width="47" height="1"/>
<rect x="154" y="123" width="64" height="1"/>
<rect x="264" y="123" width="19" height="1"/>
<rect x="335" y="123" width="19" height="1"/>
<rect x="422" y="123" width="48" height="1"/>
<rect x="532" y="123" width="19" height="1"/>
<rect x="613" y="123" width="19" height="1"/>
<rect x="691" y="123" width="67" height="1"/>
<rect x="25" y="124" width="44" height="1"/>
<rect x="155" y="124" width="62" height="1"/>
<rect x="265" y="124" width="17" height="1"/>
<rect x="336" y="124" width="17" height="1"/>
<rect x="424" y="124" width="45" height="1"/>
<rect x="532" y="124" width="18" height="1"/>
<rect x="614" y="124" width="17" height="1"/>
<rect x="693" y="124" width="64" height="1"/>
<rect x="27" y="125" width="41" height="1"/>
<rect x="156" y="125" width="61" height="1"/>
<rect x="265" y="125" width="16" height="1"/>
<rect x="336" y="125" width="17" height="1"/>
<rect x="425" y="125" width="43" height="1"/>
<rect x="532" y="125" width="18" height="1"/>
<rect x="614" y="125" width="17" height="1"/>
<rect x="694" y="125" width="63" height="1"/>
<rect x="29" y="126" width="36" height="1"/>
<rect x="159" y="126" width="57" height="1"/>
<rect x="266" y="126" width="14" height="1"/>
<rect x="337" y="126" width="14" height="1"/>
<rect x="427" y="126" width="39" height="1"/>
<rect x="533" y="126" width="16" height="1"/>
<rect x="615" y="126" width="15" height="1"/>
<rect x="696" y="126" width="60" height="1"/>
<rect x="32" y="127" width="30" height="1"/>
<rect x="162" y="127" width="53" height="1"/>
<rect x="267" y="127" width="12" height="1"/>
<rect x="338" y="127" width="12" height="1"/>
<rect x="430" y="127" width="32" height="1"/>
<rect x="534" y="127" width="13" height="1"/>
<rect x="616" y="127" width="13" height="1"/>
<rect x="700" y="127" width="55" height="1"/>
<rect x="34" y="128" width="26" height="1"/>
<rect x="163" y="128" width="51" height="1"/>
<rect x="268" y="128" width="10" height="1"/>
<rect x="339" y="128" width="11" height="1"/>
<rect x="433" y="128" width="27" height="1"/>
<rect x="535" y="128" width="12" height="1"/>
<rect x="617" y="128" width="11" height="1"/>
<rect x="702" y="128" width="52" height="1"/>
<rect x="36" y="129" width="22" height="1"/>
<rect x="165" y="129" width="48" height="1"/>
<rect x="270" y="129" width="7" height="1"/>
<rect x="340" y="129" width="8" height="1"/>
<rect x="435" y="129" width="23" height="1"/>
<rect x="536" y="129" width="9" height="1"/>
<rect x="618" y="129" width="8" height="1"/>
<rect x="704" y="129" width="49" height="1"/>
<rect x="169" y="130" width="42" height="1"/>
<rect x="539" y="130" width="3" height="1"/>
</g></svg>